# xmcd CD database file
#
# Track frame offsets:
#	150
#	15412
#	31900
#	54375
#	72400
#	89750
#	103562
#	124287
#	143437
#	165887
#
# Disc length: 2406 seconds
#
# Revision: 0
# Processed by: cddbd v1.5PL3 Copyright (c) Steve Scherf et al.
# Submitted via: CDex 1.50
#
DISCID=7909640a
DTITLE=岡本南 - みなみかぜ
DYEAR=1988
DGENRE=JPop
TTITLE0=風とかくれんぼ
TTITLE1=二十時発蛍列車
TTITLE2=9月の扉
TTITLE3=チャンスのシッポ
TTITLE4=夏の妹
TTITLE5=モザイクの坂道
TTITLE6=想い出を同封します
TTITLE7=日曜日も会いたい
TTITLE8=瞳の奥にネバーランド
TTITLE9=梔子の花咲けば
EXTD=YEAR: 1988/08/21
EXTT0=
EXTT1=
EXTT2=
EXTT3=
EXTT4=
EXTT5=
EXTT6=
EXTT7=
EXTT8=
EXTT9=
PLAYORDER=
